<svg xmlns="http://www.w3.org/2000/svg" width="980" height="990" viewBox="0 0 980 990">
  <!-- asphalt background -->
  <rect width="980" height="990" fill="#0d1117" rx="8"/>

  <!-- parking bay fills -->
  <rect x="50"  y="48" width="100" height="714" fill="#0c1929" rx="2"/>
  <rect x="239" y="48" width="208" height="714" fill="#0c1929" rx="2"/>
  <rect x="531" y="48" width="208" height="714" fill="#0c1929" rx="2"/>
  <rect x="823" y="48" width="100" height="714" fill="#0c1929" rx="2"/>
  <rect x="42"  y="841" width="792" height="110" fill="#0c1929" rx="2"/>

  <!-- pair centre lane dividers -->
  <line x1="341" y1="48" x2="341" y2="762" stroke="#2a5a96" stroke-width="2"/>
  <line x1="633" y1="48" x2="633" y2="762" stroke="#2a5a96" stroke-width="2"/>

  <!-- col 1 stalls (x=62 w=76 h=38 step=46) -->
  <rect x="62" y="64"  width="76" height="38" fill="none" stroke="#2a5a96" stroke-width="1.2"/>
  <rect x="62" y="110" width="76" height="38" fill="none" stroke="#2a5a96" stroke-width="1.2"/>
  <rect x="62" y="156" width="76" height="38" fill="none" stroke="#2a5a96" stroke-width="1.2"/>
  <rect x="62" y="202" width="76" height="38" fill="none" stroke="#2a5a96" stroke-width="1.2"/>
  <rect x="62" y="248" width="76" height="38" fill="none" stroke="#2a5a96" stroke-width="1.2"/>
  <rect x="62" y="294" width="76" height="38" fill="none" stroke="#2a5a96" stroke-width="1.2"/>
  <rect x="62" y="340" width="76" height="38" fill="none" stroke="#2a5a96" stroke-width="1.2"/>
  <rect x="62" y="386" width="76" height="38" fill="none" stroke="#2a5a96" stroke-width="1.2"/>
  <rect x="62" y="432" width="76" height="38" fill="none" stroke="#2a5a96" stroke-width="1.2"/>
  <rect x="62" y="478" width="76" height="38" fill="none" stroke="#2a5a96" stroke-width="1.2"/>
  <rect x="62" y="524" width="76" height="38" fill="none" stroke="#2a5a96" stroke-width="1.2"/>
  <rect x="62" y="570" width="76" height="38" fill="none" stroke="#2a5a96" stroke-width="1.2"/>
  <rect x="62" y="616" width="76" height="38" fill="none" stroke="#2a5a96" stroke-width="1.2"/>
  <rect x="62" y="662" width="76" height="38" fill="none" stroke="#2a5a96" stroke-width="1.2"/>
  <rect x="62" y="708" width="76" height="38" fill="none" stroke="#2a5a96" stroke-width="1.2"/>

  <!-- col 2 stalls (x=252) -->
  <rect x="252" y="64"  width="76" height="38" fill="none" stroke="#2a5a96" stroke-width="1.2"/>
  <rect x="252" y="110" width="76" height="38" fill="none" stroke="#2a5a96" stroke-width="1.2"/>
  <rect x="252" y="156" width="76" height="38" fill="none" stroke="#2a5a96" stroke-width="1.2"/>
  <rect x="252" y="202" width="76" height="38" fill="none" stroke="#2a5a96" stroke-width="1.2"/>
  <rect x="252" y="248" width="76" height="38" fill="none" stroke="#2a5a96" stroke-width="1.2"/>
  <rect x="252" y="294" width="76" height="38" fill="none" stroke="#2a5a96" stroke-width="1.2"/>
  <rect x="252" y="340" width="76" height="38" fill="none" stroke="#2a5a96" stroke-width="1.2"/>
  <rect x="252" y="386" width="76" height="38" fill="none" stroke="#2a5a96" stroke-width="1.2"/>
  <rect x="252" y="432" width="76" height="38" fill="none" stroke="#2a5a96" stroke-width="1.2"/>
  <rect x="252" y="478" width="76" height="38" fill="none" stroke="#2a5a96" stroke-width="1.2"/>
  <rect x="252" y="524" width="76" height="38" fill="none" stroke="#2a5a96" stroke-width="1.2"/>
  <rect x="252" y="570" width="76" height="38" fill="none" stroke="#2a5a96" stroke-width="1.2"/>
  <rect x="252" y="616" width="76" height="38" fill="none" stroke="#2a5a96" stroke-width="1.2"/>
  <rect x="252" y="662" width="76" height="38" fill="none" stroke="#2a5a96" stroke-width="1.2"/>
  <rect x="252" y="708" width="76" height="38" fill="none" stroke="#2a5a96" stroke-width="1.2"/>

  <!-- col 3 stalls (x=354) -->
  <rect x="354" y="64"  width="76" height="38" fill="none" stroke="#2a5a96" stroke-width="1.2"/>
  <rect x="354" y="110" width="76" height="38" fill="none" stroke="#2a5a96" stroke-width="1.2"/>
  <rect x="354" y="156" width="76" height="38" fill="none" stroke="#2a5a96" stroke-width="1.2"/>
  <rect x="354" y="202" width="76" height="38" fill="none" stroke="#2a5a96" stroke-width="1.2"/>
  <rect x="354" y="248" width="76" height="38" fill="none" stroke="#2a5a96" stroke-width="1.2"/>
  <rect x="354" y="294" width="76" height="38" fill="none" stroke="#2a5a96" stroke-width="1.2"/>
  <rect x="354" y="340" width="76" height="38" fill="none" stroke="#2a5a96" stroke-width="1.2"/>
  <rect x="354" y="386" width="76" height="38" fill="none" stroke="#2a5a96" stroke-width="1.2"/>
  <rect x="354" y="432" width="76" height="38" fill="none" stroke="#2a5a96" stroke-width="1.2"/>
  <rect x="354" y="478" width="76" height="38" fill="none" stroke="#2a5a96" stroke-width="1.2"/>
  <rect x="354" y="524" width="76" height="38" fill="none" stroke="#2a5a96" stroke-width="1.2"/>
  <rect x="354" y="570" width="76" height="38" fill="none" stroke="#2a5a96" stroke-width="1.2"/>
  <rect x="354" y="616" width="76" height="38" fill="none" stroke="#2a5a96" stroke-width="1.2"/>
  <rect x="354" y="662" width="76" height="38" fill="none" stroke="#2a5a96" stroke-width="1.2"/>
  <rect x="354" y="708" width="76" height="38" fill="none" stroke="#2a5a96" stroke-width="1.2"/>

  <!-- col 4 stalls (x=544) -->
  <rect x="544" y="64"  width="76" height="38" fill="none" stroke="#2a5a96" stroke-width="1.2"/>
  <rect x="544" y="110" width="76" height="38" fill="none" stroke="#2a5a96" stroke-width="1.2"/>
  <rect x="544" y="156" width="76" height="38" fill="none" stroke="#2a5a96" stroke-width="1.2"/>
  <rect x="544" y="202" width="76" height="38" fill="none" stroke="#2a5a96" stroke-width="1.2"/>
  <rect x="544" y="248" width="76" height="38" fill="none" stroke="#2a5a96" stroke-width="1.2"/>
  <rect x="544" y="294" width="76" height="38" fill="none" stroke="#2a5a96" stroke-width="1.2"/>
  <rect x="544" y="340" width="76" height="38" fill="none" stroke="#2a5a96" stroke-width="1.2"/>
  <rect x="544" y="386" width="76" height="38" fill="none" stroke="#2a5a96" stroke-width="1.2"/>
  <rect x="544" y="432" width="76" height="38" fill="none" stroke="#2a5a96" stroke-width="1.2"/>
  <rect x="544" y="478" width="76" height="38" fill="none" stroke="#2a5a96" stroke-width="1.2"/>
  <rect x="544" y="524" width="76" height="38" fill="none" stroke="#2a5a96" stroke-width="1.2"/>
  <rect x="544" y="570" width="76" height="38" fill="none" stroke="#2a5a96" stroke-width="1.2"/>
  <rect x="544" y="616" width="76" height="38" fill="none" stroke="#2a5a96" stroke-width="1.2"/>
  <rect x="544" y="662" width="76" height="38" fill="none" stroke="#2a5a96" stroke-width="1.2"/>
  <rect x="544" y="708" width="76" height="38" fill="none" stroke="#2a5a96" stroke-width="1.2"/>

  <!-- col 5 stalls (x=646) -->
  <rect x="646" y="64"  width="76" height="38" fill="none" stroke="#2a5a96" stroke-width="1.2"/>
  <rect x="646" y="110" width="76" height="38" fill="none" stroke="#2a5a96" stroke-width="1.2"/>
  <rect x="646" y="156" width="76" height="38" fill="none" stroke="#2a5a96" stroke-width="1.2"/>
  <rect x="646" y="202" width="76" height="38" fill="none" stroke="#2a5a96" stroke-width="1.2"/>
  <rect x="646" y="248" width="76" height="38" fill="none" stroke="#2a5a96" stroke-width="1.2"/>
  <rect x="646" y="294" width="76" height="38" fill="none" stroke="#2a5a96" stroke-width="1.2"/>
  <rect x="646" y="340" width="76" height="38" fill="none" stroke="#2a5a96" stroke-width="1.2"/>
  <rect x="646" y="386" width="76" height="38" fill="none" stroke="#2a5a96" stroke-width="1.2"/>
  <rect x="646" y="432" width="76" height="38" fill="none" stroke="#2a5a96" stroke-width="1.2"/>
  <rect x="646" y="478" width="76" height="38" fill="none" stroke="#2a5a96" stroke-width="1.2"/>
  <rect x="646" y="524" width="76" height="38" fill="none" stroke="#2a5a96" stroke-width="1.2"/>
  <rect x="646" y="570" width="76" height="38" fill="none" stroke="#2a5a96" stroke-width="1.2"/>
  <rect x="646" y="616" width="76" height="38" fill="none" stroke="#2a5a96" stroke-width="1.2"/>
  <rect x="646" y="662" width="76" height="38" fill="none" stroke="#2a5a96" stroke-width="1.2"/>
  <rect x="646" y="708" width="76" height="38" fill="none" stroke="#2a5a96" stroke-width="1.2"/>

  <!-- col 6 stalls (x=836) -->
  <rect x="836" y="64"  width="76" height="38" fill="none" stroke="#2a5a96" stroke-width="1.2"/>
  <rect x="836" y="110" width="76" height="38" fill="none" stroke="#2a5a96" stroke-width="1.2"/>
  <rect x="836" y="156" width="76" height="38" fill="none" stroke="#2a5a96" stroke-width="1.2"/>
  <rect x="836" y="202" width="76" height="38" fill="none" stroke="#2a5a96" stroke-width="1.2"/>
  <rect x="836" y="248" width="76" height="38" fill="none" stroke="#2a5a96" stroke-width="1.2"/>
  <rect x="836" y="294" width="76" height="38" fill="none" stroke="#2a5a96" stroke-width="1.2"/>
  <rect x="836" y="340" width="76" height="38" fill="none" stroke="#2a5a96" stroke-width="1.2"/>
  <rect x="836" y="386" width="76" height="38" fill="none" stroke="#2a5a96" stroke-width="1.2"/>
  <rect x="836" y="432" width="76" height="38" fill="none" stroke="#2a5a96" stroke-width="1.2"/>
  <rect x="836" y="478" width="76" height="38" fill="none" stroke="#2a5a96" stroke-width="1.2"/>
  <rect x="836" y="524" width="76" height="38" fill="none" stroke="#2a5a96" stroke-width="1.2"/>
  <rect x="836" y="570" width="76" height="38" fill="none" stroke="#2a5a96" stroke-width="1.2"/>
  <rect x="836" y="616" width="76" height="38" fill="none" stroke="#2a5a96" stroke-width="1.2"/>
  <rect x="836" y="662" width="76" height="38" fill="none" stroke="#2a5a96" stroke-width="1.2"/>
  <rect x="836" y="708" width="76" height="38" fill="none" stroke="#2a5a96" stroke-width="1.2"/>

  <!-- bottom row stalls (w=43 h=80 step=51 y=857) -->
  <rect x="53"  y="857" width="43" height="80" fill="none" stroke="#2a5a96" stroke-width="1.2"/>
  <rect x="104" y="857" width="43" height="80" fill="none" stroke="#2a5a96" stroke-width="1.2"/>
  <rect x="155" y="857" width="43" height="80" fill="none" stroke="#2a5a96" stroke-width="1.2"/>
  <rect x="206" y="857" width="43" height="80" fill="none" stroke="#2a5a96" stroke-width="1.2"/>
  <rect x="257" y="857" width="43" height="80" fill="none" stroke="#2a5a96" stroke-width="1.2"/>
  <rect x="308" y="857" width="43" height="80" fill="none" stroke="#2a5a96" stroke-width="1.2"/>
  <rect x="359" y="857" width="43" height="80" fill="none" stroke="#2a5a96" stroke-width="1.2"/>
  <rect x="410" y="857" width="43" height="80" fill="none" stroke="#2a5a96" stroke-width="1.2"/>
  <rect x="461" y="857" width="43" height="80" fill="none" stroke="#2a5a96" stroke-width="1.2"/>
  <rect x="512" y="857" width="43" height="80" fill="none" stroke="#2a5a96" stroke-width="1.2"/>
  <rect x="563" y="857" width="43" height="80" fill="none" stroke="#2a5a96" stroke-width="1.2"/>
  <rect x="614" y="857" width="43" height="80" fill="none" stroke="#2a5a96" stroke-width="1.2"/>
  <rect x="665" y="857" width="43" height="80" fill="none" stroke="#2a5a96" stroke-width="1.2"/>
  <rect x="716" y="857" width="43" height="80" fill="none" stroke="#2a5a96" stroke-width="1.2"/>
  <rect x="767" y="857" width="43" height="80" fill="none" stroke="#2a5a96" stroke-width="1.2"/>
</svg>
